<svg xmlns="http://www.w3.org/2000/svg" viewBox="53 19 67.1 67.1" enable-background="new 53 19 67.1 67.1"><path d="M94.7 75.6c-.3 0-.6.2-.8.5-.2.3-.3.6-.3 1s.1.7.3 1c.2.3.4.5.8.5s.7-.2.9-.5c.2-.3.3-.6.3-1 0-.3-.1-.7-.3-1-.2-.3-.5-.5-.9-.5zm-5.5 0c-.3 0-.6.2-.8.5-.2.3-.3.6-.3 1s.1.8.3 1c.2.3.4.4.8.4s.7-.1.9-.4c.2-.3.3-.6.3-1 0-.3-.1-.7-.3-1-.2-.3-.5-.5-.9-.5zm16.8 0c-.4 0-.7.1-.9.3-.1.2-.2.4-.2.6h2c0-.3-.1-.5-.3-.7-.1-.1-.4-.2-.6-.2zM53 19v67.1h67.1V19H53zm51.5 36.9h3l-2.8 13.4h-3.1l2.9-13.4zm-6.7 0h3L98 69.3h-3l2.8-13.4zM96.3 73v1h-1.2v-1h1.2zm-5.1-17.1h3l-2.9 13.4h-3l2.9-13.4zM94.4 73v1h-1.2v-1h1.2zM75 55.9h3.1v5c.3-.5.7-.9 1.2-1.2.6-.3 1.2-.4 1.8-.4.8 0 1.4.1 1.9.4.5.3.9.6 1.1.9.2.4.3.7.4 1.2.1.4.1.8.1 1.2v6.3h-3.3v-4.7c0-.7 0-1.3-.1-1.8s-.6-.8-1.4-.8c-.6 0-1 .2-1.3.6-.3.4-.4.9-.4 1.4v5.4H75V55.9zM61.2 69.3h-3L61 55.9h3l-2.8 13.4zm11.4-11.1h-.8c-.4 0-.6 0-.9.1-.2.1-.3.4-.3.8v.5h1.8v2h-1.8v7.7h-3.3v-7.7h-1.4v-2h1.4c0-.7.1-1.3.2-1.8s.4-.9.7-1.1c.3-.3.6-.6 1.1-.7s1.1-.1 1.8-.1h1.5v2.3zm4 18.2c.3.1.6.2 1 .3.4.1.8.2 1 .4.3.2.4.4.4.8 0 .6-.2 1-.7 1.3-.4.3-.9.4-1.4.4s-1-.1-1.4-.4c-.4-.3-.7-.7-.7-1.3H76c0 .3.1.5.3.6.2.1.5.2.7.2.2 0 .3 0 .5-.1s.3-.2.3-.4-.1-.3-.4-.5-.6-.2-1-.3c-.4-.1-.7-.2-1-.3-.3-.1-.5-.4-.5-.9 0-.6.2-1 .6-1.2.4-.2.9-.3 1.4-.3s1 .1 1.4.3c.4.2.6.6.7 1.2h-1.3c0-.3-.1-.4-.3-.5-.2-.1-.4-.1-.5-.1-.2 0-.4 0-.5.1-.2 0-.3.2-.3.3 0 .1.1.3.5.4zm5.9-.8h-.9v2.2c0 .3 0 .4.1.5 0 0 .2.1.5.1h.4v1h-.8c-.3 0-.7-.1-1-.2-.3-.1-.5-.4-.5-.9v-2.8h-.8v-.8h.8v-1.4h1.3v1.4h.9v.9zm2.4 3.8h-1.3V78h1.3v1.4zm6.2-.6c-.3.5-.8.7-1.5.7-.3 0-.5-.1-.8-.2-.3-.1-.4-.3-.5-.6h-.1V81H87v-6.2h1.2v.5c.2-.3.4-.4.6-.5s.5-.1.7-.1c.8 0 1.3.2 1.6.7.3.5.5 1.1.5 1.8 0 .6-.2 1.1-.5 1.6zm5.4 0c-.4.5-1 .7-1.8.7-.7 0-1.3-.2-1.7-.7-.4-.4-.7-1-.7-1.8 0-.7.2-1.3.7-1.7.4-.4 1-.7 1.7-.7.8 0 1.4.2 1.8.7.4.4.7 1 .7 1.7s-.2 1.3-.7 1.8zm2.9.6h-1.3V73h1.3v6.4zm3.7-3.8h-.9v2.2c0 .3 0 .4.1.5.1 0 .2.1.4.1h.4v1h-.8c-.4 0-.7-.1-1-.2-.3-.1-.5-.4-.5-.9v-2.8h-.8v-.8h.8v-1.4h1.3v1.4h.9v.9h.1zm2.1 2.6c.2.2.4.3.8.3.3 0 .5-.1.7-.2.2-.1.3-.2.4-.3h1c-.2.5-.4.9-.8 1.2-.3.3-.8.4-1.3.4-.7 0-1.3-.2-1.7-.7-.4-.5-.7-1.1-.7-1.8s.2-1.3.7-1.7c.4-.4 1-.7 1.7-.7.8 0 1.4.3 1.7.8.3.5.5 1.1.5 1.8h-3.3c0 .4.1.7.3.9zm8.2 1.2h-1.3v-2.6c0-.3-.1-.6-.2-.9-.1-.2-.3-.3-.6-.3s-.6.1-.7.3c-.1.2-.2.5-.2 1v2.5h-1.3v-4.6h1.2v.5c.2-.2.4-.3.7-.5.3-.2.5-.2.8-.2.7 0 1.2.2 1.4.5.2.4.3.8.3 1.3v3h-.1z" fill="#005096"/></svg>